<svg width="30" height="30" viewBox="0 0 30 30" fill="none" xmlns="http://www.w3.org/2000/svg">
<path d="M28 15V19C28 19.2652 27.8946 19.5196 27.7071 19.7071C27.5196 19.8946 27.2652 20 27 20C26.7348 20 26.4804 19.8946 26.2929 19.7071C26.1054 19.5196 26 19.2652 26 19C26 19 26.12 18 24 18H22V23C22 23.2652 21.8946 23.5196 21.7071 23.7071C21.5196 23.8946 21.2652 24 21 24H5C4.73478 24 4.48043 23.8946 4.29289 23.7071C4.10536 23.5196 4 23.2652 4 23V15C4 14.7348 4.10536 14.4804 4.29289 14.2929C4.48043 14.1054 4.73478 14 5 14H21C21.2652 14 21.5196 14.1054 21.7071 14.2929C21.8946 14.4804 22 14.7348 22 15V16H24C26.12 16 26 15 26 15C26 14.7348 26.1054 14.4804 26.2929 14.2929C26.4804 14.1054 26.7348 14 27 14C27.2652 14 27.5196 14.1054 27.7071 14.2929C27.8946 14.4804 28 14.7348 28 15ZM8 6C6.93913 6 5.92172 6.42143 5.17157 7.17157C4.42143 7.92172 4 8.93913 4 10C4 11.0609 4.42143 12.0783 5.17157 12.8284C5.92172 13.5786 6.93913 14 8 14C9.06087 14 10.0783 13.5786 10.8284 12.8284C11.5786 12.0783 12 11.0609 12 10C12 8.93913 11.5786 7.92172 10.8284 7.17157C10.0783 6.42143 9.06087 6 8 6ZM8 12C7.46957 12 6.96086 11.7893 6.58579 11.4142C6.21071 11.0391 6 10.5304 6 10C6 9.46957 6.21071 8.96086 6.58579 8.58579C6.96086 8.21071 7.46957 8 8 8C8.53043 8 9.03914 8.21071 9.41421 8.58579C9.78929 8.96086 10 9.46957 10 10C10 10.5304 9.78929 11.0391 9.41421 11.4142C9.03914 11.7893 8.53043 12 8 12ZM17 4C15.6739 4 14.4021 4.52678 13.4645 5.46447C12.5268 6.40215 12 7.67392 12 9C12 10.3261 12.5268 11.5979 13.4645 12.5355C14.4021 13.4732 15.6739 14 17 14C18.3261 14 19.5979 13.4732 20.5355 12.5355C21.4732 11.5979 22 10.3261 22 9C22 7.67392 21.4732 6.40215 20.5355 5.46447C19.5979 4.52678 18.3261 4 17 4ZM17 12C16.2044 12 15.4413 11.6839 14.8787 11.1213C14.3161 10.5587 14 9.79565 14 9C14 8.20435 14.3161 7.44129 14.8787 6.87868C15.4413 6.31607 16.2044 6 17 6C17.7956 6 18.5587 6.31607 19.1213 6.87868C19.6839 7.44129 20 8.20435 20 9C20 9.79565 19.6839 10.5587 19.1213 11.1213C18.5587 11.6839 17.7956 12 17 12Z" fill="#A1E3D8"/>
</svg>
