<svg width="25" height="25" viewBox="0 0 25 25" fill="none" xmlns="http://www.w3.org/2000/svg">
<path d="M18.75 14.0625L23.4375 12.5V20.3125L18.75 18.75V21.0938C18.75 21.301 18.6677 21.4997 18.5212 21.6462C18.3747 21.7927 18.176 21.875 17.9688 21.875H2.34375C2.13655 21.875 1.93784 21.7927 1.79132 21.6462C1.64481 21.4997 1.5625 21.301 1.5625 21.0938V11.7188C1.5625 11.5115 1.64481 11.3128 1.79132 11.1663C1.93784 11.0198 2.13655 10.9375 2.34375 10.9375H17.9688C18.176 10.9375 18.3747 11.0198 18.5212 11.1663C18.6677 11.3128 18.75 11.5115 18.75 11.7188V14.0625ZM4.6875 18.75V20.3125H14.0625V18.75H4.6875ZM9.375 7.03125C9.375 5.99525 9.78655 5.00168 10.5191 4.26911C11.2517 3.53655 12.2452 3.125 13.2812 3.125C14.3173 3.125 15.3108 3.53655 16.0434 4.26911C16.7759 5.00168 17.1875 5.99525 17.1875 7.03125C17.1875 8.06725 16.7759 9.06082 16.0434 9.79339C15.3108 10.5259 14.3173 10.9375 13.2812 10.9375C12.2452 10.9375 11.2517 10.5259 10.5191 9.79339C9.78655 9.06082 9.375 8.06725 9.375 7.03125ZM10.9375 7.03125C10.9377 7.65306 11.1849 8.24932 11.6248 8.68886C12.0646 9.12839 12.661 9.37521 13.2828 9.375C13.9046 9.37479 14.5009 9.12758 14.9404 8.68775C15.38 8.24792 15.6268 7.6515 15.6266 7.02969C15.6264 6.40788 15.3791 5.81162 14.9393 5.37208C14.4995 4.93254 13.9031 4.68573 13.2812 4.68594C12.6594 4.68614 12.0632 4.93336 11.6236 5.37319C11.1841 5.81302 10.9373 6.40944 10.9375 7.03125ZM3.125 7.8125C3.1251 7.40202 3.20605 6.99557 3.36323 6.61637C3.52041 6.23718 3.75074 5.89265 4.04107 5.60247C4.3314 5.31228 4.67604 5.08213 5.05532 4.92514C5.43459 4.76815 5.84108 4.6874 6.25156 4.6875C6.66205 4.6876 7.06849 4.76855 7.44769 4.92573C7.82689 5.08291 8.17141 5.31324 8.46159 5.60357C8.75178 5.8939 8.98194 6.23854 9.13893 6.61782C9.29592 6.99709 9.37667 7.40358 9.37656 7.81406C9.37636 8.64307 9.04683 9.43804 8.46049 10.0241C7.87415 10.6101 7.07901 10.9393 6.25 10.9391C5.42099 10.9389 4.62602 10.6093 4.03997 10.023C3.45392 9.43665 3.12479 8.64151 3.125 7.8125ZM4.6875 7.8125C4.6875 8.2269 4.85212 8.62433 5.14515 8.91735C5.43817 9.21038 5.8356 9.375 6.25 9.375C6.6644 9.375 7.06183 9.21038 7.35485 8.91735C7.64788 8.62433 7.8125 8.2269 7.8125 7.8125C7.8125 7.3981 7.64788 7.00067 7.35485 6.70765C7.06183 6.41462 6.6644 6.25 6.25 6.25C5.8356 6.25 5.43817 6.41462 5.14515 6.70765C4.85212 7.00067 4.6875 7.3981 4.6875 7.8125Z" fill="#F6E7D8"/>
</svg>
